<?xml version="1.0" encoding="utf-8"?>
<svg width="51px" height="51px" viewBox="0 0 51 51" xmlns="http://www.w3.org/2000/svg">
  <path fill-rule="evenodd" clip-rule="evenodd" d="M 27.542 48.875 L 15.292 48.875 L 15.292 35.987 C 16.57 35.658 17.415 34.933 17.985 33.764 C 22.378 35.407 25.431 28.87 21.698 26.208 C 23.636 23.836 22.199 20.413 19.234 20.848 C 17.809 15.831 10.759 15.793 9.332 20.848 C 6.464 20.366 4.869 23.396 6.504 25.713 C 3.14 28.696 6.29 34.289 10.326 33.08 C 10.769 34.574 11.919 35.596 13.25 35.964 L 13.25 48.875 L 9.167 48.875 L 9.167 38.511 C 8.546 38.004 8.042 37.417 8.052 37.428 C 3.967 36.862 1 32.935 1 28.781 C 1 27.542 1.263 26.288 1.837 25.094 C 1.18 21.582 3.172 18.003 6.647 16.862 L 6.684 16.849 C 8.372 14.38 11.078 12.975 13.865 12.827 L 25.465 2.125 L 50 24.75 L 47.285 27.918 L 25.465 7.797 L 18.761 13.976 C 19.389 14.325 19.975 14.741 20.506 15.23 L 25.445 10.663 C 27.744 12.784 30.049 14.903 32.354 17.023 L 36.964 21.261 L 43.875 27.625 L 43.875 48.875 L 31.625 48.875 L 31.625 38.25 L 27.542 38.25 L 27.542 48.875 Z M 23.458 37.007 C 22.003 37.953 20.888 38.131 19.375 38.25 L 19.375 44.625 L 23.458 44.625 L 23.458 37.007 Z M 26.347 34.019 L 35.708 34 L 35.708 44.625 L 39.792 44.625 L 39.792 29.501 L 25.445 16.335 L 23.785 17.865 C 26.08 19.554 27.25 22.561 26.543 25.545 C 27.862 27.982 27.909 31.267 26.347 34.019 Z M 14.175 26.182 C 17.227 24.01 20.792 27.816 18.875 30.908 C 18.879 27.78 17.135 26.065 14.175 26.182 Z M 9.851 28.711 C 7.305 24.748 11.901 19.862 15.78 22.561 C 11.917 22.493 9.765 24.778 9.851 28.711 Z" fill="black"/>
</svg>