<svg width="50" height="39" viewBox="0 0 50 39" fill="none" xmlns="http://www.w3.org/2000/svg">
<path d="M35.1479 3.163C34.5604 1.5395 33.0437 0.375 31.25 0.375C28.5458 0.375 26.4312 3.0185 27.2833 5.86175C29.5979 5.02237 32.1708 3.51787 35.1479 3.163ZM27.0833 21.625C27.0833 20.452 26.1521 19.5 25 19.5C23.8479 19.5 22.9167 20.452 22.9167 21.625C22.9167 22.798 23.8479 23.75 25 23.75C26.1521 23.75 27.0833 22.798 27.0833 21.625ZM38.1625 31.9801C41.2104 31.3192 43.3104 28.8139 42.6333 25.1227C45.5479 28.3464 42.3104 33.5144 38.1625 31.9801ZM8.99375 31.9801C12.0417 31.3192 14.1417 28.8139 13.4646 25.1227C16.3792 28.3464 13.1396 33.5144 8.99375 31.9801ZM18.75 0.375C16.9562 0.375 15.4396 1.5395 14.8521 3.163C17.8292 3.52 20.4021 5.02237 22.7167 5.86175C23.5688 3.0185 21.4542 0.375 18.75 0.375ZM21.1125 12.0498C23.6292 12.8913 26.3562 12.8955 28.8854 12.0498C34.3333 10.235 36.2083 7.8295 38.1604 11.3464C38.9771 12.8148 40.9354 16.3125 41.6292 17.5811C35.6833 16.3593 30.0208 20.5901 29.2542 26.6209C26.6854 25.3034 23.4333 25.246 20.7458 26.6209C19.9771 20.588 14.3167 16.3593 8.36875 17.5811C9.23125 16.0129 10.8333 13.159 11.8375 11.3485C13.7875 7.83162 15.6583 10.2308 21.1125 12.0498ZM36.0521 5.30287C33.15 5.30287 30.0937 7.175 27.5896 8.01012C25.8979 8.57537 24.0792 8.569 22.4104 8.01012C19.9083 7.175 16.85 5.30287 13.9479 5.30287C11.8687 5.30287 9.86875 6.26338 8.21042 9.25325C3.19792 18.2951 0 23.4631 0 28C0 33.8671 4.6625 38.625 10.4167 38.625C18.8312 38.625 19.075 29.8636 25 29.8636C30.925 29.8636 31.1687 38.625 39.5833 38.625C45.3375 38.625 50 33.8671 50 28C50 23.4631 46.8021 18.2951 41.7896 9.25537C40.1292 6.26337 38.1312 5.30287 36.0521 5.30287ZM39.5833 34.375C36.1375 34.375 33.3333 31.5147 33.3333 28C33.3333 24.4853 36.1375 21.625 39.5833 21.625C43.0292 21.625 45.8333 24.4853 45.8333 28C45.8333 31.5147 43.0292 34.375 39.5833 34.375ZM10.4167 34.375C6.97083 34.375 4.16667 31.5147 4.16667 28C4.16667 24.4853 6.97083 21.625 10.4167 21.625C13.8625 21.625 16.6667 24.4853 16.6667 28C16.6667 31.5147 13.8625 34.375 10.4167 34.375Z" fill="black"/>
</svg>
