<?xml version="1.0" encoding="utf-8"?>
<svg width="51px" height="51" viewBox="0 0 51 51" fill="none" xmlns="http://www.w3.org/2000/svg">
  <path d="M 50 47.995 L 44.236 41.996 C 45.31 40.313 45.943 38.299 45.943 36.125 C 45.943 30.256 41.374 25.5 35.735 25.5 C 30.096 25.5 25.527 30.256 25.527 36.125 C 25.527 41.994 30.096 46.75 35.735 46.75 C 37.809 46.75 39.73 46.098 41.341 44.993 L 47.113 51 L 50 47.995 Z M 29.61 36.125 C 29.61 32.61 32.358 29.75 35.735 29.75 C 39.112 29.75 41.86 32.61 41.86 36.125 C 41.86 39.64 39.112 42.5 35.735 42.5 C 32.358 42.5 29.61 39.64 29.61 36.125 Z M 21.443 36.125 L 21.447 36.053 L 15.292 40.675 L 15.292 12.905 L 23.458 6.772 L 23.458 28.547 C 24.496 26.733 25.886 25.166 27.542 23.955 L 27.542 6.772 L 35.708 12.905 L 35.708 21.25 L 35.735 21.25 C 36.421 21.25 37.091 21.318 37.75 21.416 L 37.75 12.901 L 45.917 7.633 L 45.917 25.704 C 48.342 28.271 49.869 31.748 50 35.592 L 50 0 L 36.821 8.5 L 25.5 0 L 14.179 8.5 L 1 0 L 1 38.25 L 14.179 46.75 L 22.162 40.758 C 21.7 39.298 21.443 37.742 21.443 36.125 Z M 13.25 41.151 L 5.083 35.883 L 5.083 7.633 L 13.25 12.901 L 13.25 41.151 Z" fill="black"/>
</svg>