<svg width="49" height="51" viewBox="0 0 49 51" fill="none" xmlns="http://www.w3.org/2000/svg">
<path d="M49 47.9953L43.2364 41.9964C44.3103 40.3134 44.9432 38.2989 44.9432 36.125C44.9432 30.2558 40.374 25.5 34.7349 25.5C29.0958 25.5 24.5265 30.2558 24.5265 36.125C24.5265 41.9943 29.0958 46.75 34.7349 46.75C36.8092 46.75 38.7304 46.0976 40.3413 44.9926L46.1131 51L49 47.9953ZM28.6099 36.125C28.6099 32.6102 31.358 29.75 34.7349 29.75C38.1118 29.75 40.8599 32.6102 40.8599 36.125C40.8599 39.6398 38.1118 42.5 34.7349 42.5C31.358 42.5 28.6099 39.6398 28.6099 36.125ZM20.4432 36.125L20.4473 36.0527L14.2917 40.6746V12.9051L22.4583 6.77238V28.5473C23.4955 26.7325 24.8859 25.1664 26.5417 23.9551V6.77238L34.7083 12.9051V21.25H34.7349C35.4209 21.25 36.0905 21.318 36.75 21.4158V12.9009L44.9167 7.633V25.704C47.3422 28.271 48.8693 31.7475 49 35.5916V0L35.821 8.5L24.5 0L13.179 8.5L0 0V38.25L13.179 46.75L21.1619 40.7575C20.7005 39.2976 20.4432 37.7421 20.4432 36.125ZM12.25 41.1506L4.08333 35.8827V7.633L12.25 12.9009V41.1506Z" fill="black"/>
</svg>
