<?xml version="1.0" encoding="utf-8"?>
<svg width="51px" height="51px" viewBox="0 0 51 51" xmlns="http://www.w3.org/2000/svg">
  <path d="M 35.648 9.163 C 35.06 7.54 33.544 6.375 31.75 6.375 C 29.046 6.375 26.931 9.018 27.783 11.862 C 30.098 11.022 32.671 9.518 35.648 9.163 Z M 27.583 27.625 C 27.583 26.452 26.652 25.5 25.5 25.5 C 24.348 25.5 23.417 26.452 23.417 27.625 C 23.417 28.798 24.348 29.75 25.5 29.75 C 26.652 29.75 27.583 28.798 27.583 27.625 Z M 38.663 37.98 C 41.71 37.319 43.81 34.814 43.133 31.123 C 46.048 34.346 42.81 39.514 38.663 37.98 Z M 9.494 37.98 C 12.542 37.319 14.642 34.814 13.965 31.123 C 16.879 34.346 13.64 39.514 9.494 37.98 Z M 19.25 6.375 C 17.456 6.375 15.94 7.54 15.352 9.163 C 18.329 9.52 20.902 11.022 23.217 11.862 C 24.069 9.018 21.954 6.375 19.25 6.375 Z M 21.613 18.05 C 24.129 18.891 26.856 18.896 29.385 18.05 C 34.833 16.235 36.708 13.83 38.66 17.346 C 39.477 18.815 41.435 22.313 42.129 23.581 C 36.183 22.359 30.521 26.59 29.754 32.621 C 27.185 31.303 23.933 31.246 21.246 32.621 C 20.477 26.588 14.817 22.359 8.869 23.581 C 9.731 22.013 11.333 19.159 12.338 17.349 C 14.288 13.832 16.158 16.231 21.613 18.05 Z M 36.552 11.303 C 33.65 11.303 30.594 13.175 28.09 14.01 C 26.398 14.575 24.579 14.569 22.91 14.01 C 20.408 13.175 17.35 11.303 14.448 11.303 C 12.369 11.303 10.369 12.263 8.71 15.253 C 3.698 24.295 0.5 29.463 0.5 34 C 0.5 39.867 5.162 44.625 10.917 44.625 C 19.331 44.625 19.575 35.864 25.5 35.864 C 31.425 35.864 31.669 44.625 40.083 44.625 C 45.838 44.625 50.5 39.867 50.5 34 C 50.5 29.463 47.302 24.295 42.29 15.255 C 40.629 12.263 38.631 11.303 36.552 11.303 Z M 40.083 40.375 C 36.638 40.375 33.833 37.515 33.833 34 C 33.833 30.485 36.638 27.625 40.083 27.625 C 43.529 27.625 46.333 30.485 46.333 34 C 46.333 37.515 43.529 40.375 40.083 40.375 Z M 10.917 40.375 C 7.471 40.375 4.667 37.515 4.667 34 C 4.667 30.485 7.471 27.625 10.917 27.625 C 14.363 27.625 17.167 30.485 17.167 34 C 17.167 37.515 14.363 40.375 10.917 40.375 Z" fill="black"/>
</svg>