<svg width="49" height="47" viewBox="0 0 49 47" fill="none" xmlns="http://www.w3.org/2000/svg">
<path fill-rule="evenodd" clip-rule="evenodd" d="M26.5417 46.75H14.2917V33.8619C15.5698 33.5325 16.415 32.8079 16.9846 31.6391C21.3783 33.2817 24.4306 26.7452 20.6984 24.0826C22.636 21.7111 21.1986 18.2877 18.2341 18.7234C16.809 13.7062 9.75917 13.668 8.33204 18.7234C5.4635 18.241 3.86896 21.2712 5.50433 23.5875C2.13967 26.571 5.28996 32.164 9.32633 30.9549C9.76937 32.4487 10.9188 33.4709 12.25 33.8385V46.75H8.16667V36.3864C7.546 35.8785 7.04171 35.292 7.05192 35.3026C2.96654 34.7374 0 30.8104 0 26.656C0 25.4171 0.263375 24.1634 0.837083 22.9691C0.179667 19.4565 2.17233 15.878 5.64725 14.7369L5.684 14.7241C7.37246 12.2549 10.0777 10.8502 12.8645 10.7015L24.4653 0L49 22.6249L46.2846 25.7932L24.4653 5.67162L17.7605 11.8511C18.3893 12.1996 18.9753 12.6161 19.5061 13.1049L24.4449 8.53825C26.7438 10.659 29.0488 12.7776 31.3539 14.8984L35.964 19.1356L42.875 25.5V46.75H30.625V36.125H26.5417V46.75ZM22.4583 34.8819C21.0026 35.8275 19.8879 36.006 18.375 36.125V42.5H22.4583V34.8819ZM25.3473 31.8941L34.7083 31.875V42.5H38.7917V27.3764L24.4449 14.2099L22.785 15.7399C25.0798 17.4292 26.2497 20.4361 25.5433 23.4196C26.8622 25.857 26.9092 29.1422 25.3473 31.8941ZM13.1749 24.0571C16.2272 21.8854 19.7919 25.6912 17.8748 28.7831C17.8789 25.6551 16.1353 23.9402 13.1749 24.0571ZM8.85063 26.5859C6.30467 22.6227 10.9005 17.7374 14.7796 20.4361C10.9168 20.3681 8.76488 22.6525 8.85063 26.5859Z" fill="black"/>
</svg>
